<?xml version="1.0" encoding="UTF-8"?>
<svg xmlns="http://www.w3.org/2000/svg" xmlns:xlink="http://www.w3.org/1999/xlink" width="75px" height="72px" viewBox="0 0 75 72" version="1.1">
<g id="surface1">
<path style=" stroke:none;fill-rule:nonzero;fill:rgb(51.372549%,70.196078%,82.745098%);fill-opacity:1;" d="M 66.710938 21.277344 L 42.238281 21.277344 C 55.855469 14.742188 56.941406 10.574219 56.449219 8.300781 C 55.261719 4.5 50.824219 1.65625 46.578125 3.171875 C 41.050781 5.164062 39.574219 13.027344 38.09375 18.71875 C 36.117188 12.941406 34.34375 5.644531 30 1.941406 C 28.71875 0.898438 26.941406 -0.238281 24.277344 0.046875 C 20.328125 0.425781 14.605469 5.164062 16.875 10.46875 C 19.144531 15.585938 26.449219 18.816406 31.28125 21.371094 L 9.277344 21.371094 C 7.695312 21.371094 6.414062 22.601562 6.414062 24.121094 L 6.414062 34.835938 C 6.414062 36.351562 7.699219 37.582031 9.277344 37.582031 L 9.574219 37.582031 L 9.574219 72 L 66.613281 72 L 66.613281 37.488281 L 66.710938 37.488281 C 68.289062 37.488281 69.574219 36.253906 69.574219 34.738281 L 69.574219 24.035156 C 69.574219 22.519531 68.289062 21.289062 66.710938 21.289062 Z M 48.257812 5.550781 C 50.328125 5.265625 53.191406 6.78125 53.488281 8.582031 C 53.882812 11.234375 50.132812 13.605469 48.453125 14.644531 C 45.988281 16.257812 43.617188 17.109375 41.25 18.53125 C 42.136719 15.023438 43.71875 6.214844 48.257812 5.550781 Z M 25.65625 15.023438 C 23.488281 13.605469 19.242188 10.855469 19.34375 7.636719 C 19.441406 4.214844 24.96875 1.375 28.027344 3.929688 C 31.875 7.152344 33.652344 14.449219 35.03125 19.667969 C 31.875 18.246094 28.816406 17.015625 25.65625 15.023438 Z M 31.578125 69.15625 L 12.433594 69.15625 L 12.433594 37.488281 L 31.578125 37.488281 Z M 31.578125 34.550781 L 9.375 34.550781 L 9.375 24.128906 L 31.578125 24.128906 Z M 41.644531 34.550781 L 41.644531 69.15625 L 34.539062 69.15625 L 34.539062 24.222656 L 41.644531 24.222656 Z M 63.652344 69.15625 L 44.507812 69.15625 L 44.507812 37.488281 L 63.652344 37.488281 Z M 66.511719 34.550781 L 44.507812 34.550781 L 44.507812 24.128906 L 66.511719 24.128906 Z M 66.511719 34.550781 "/>
</g>
</svg>
