<?xml version="1.0" encoding="UTF-8"?>
<svg xmlns="http://www.w3.org/2000/svg" xmlns:xlink="http://www.w3.org/1999/xlink" width="75px" height="72px" viewBox="0 0 75 72" version="1.1">
<g id="surface1">
<path style=" stroke:none;fill-rule:nonzero;fill:rgb(51.372549%,70.196078%,82.745098%);fill-opacity:1;" d="M 30.3125 65 L 45.953125 65 L 45.953125 41.199219 L 30.3125 41.199219 Z M 33.144531 44.101562 L 43.023438 44.101562 L 43.023438 62.101562 L 33.144531 62.101562 Z M 33.144531 44.101562 "/>
<path style=" stroke:none;fill-rule:nonzero;fill:rgb(51.372549%,70.196078%,82.745098%);fill-opacity:1;" d="M 72.46875 39.300781 L 74.511719 37.199219 L 64.832031 27.300781 L 64.832031 0 L 51.234375 0 L 51.234375 13.601562 L 37.9375 0 L 1.460938 37.199219 L 3.507812 39.300781 L 11.144531 31.5 L 11.144531 69.101562 L 7.226562 69.101562 L 7.226562 72 L 69.722656 72 L 69.722656 69.101562 L 64.734375 69.101562 L 64.734375 31.5 L 72.457031 39.300781 Z M 61.890625 69.101562 L 13.96875 69.101562 L 13.96875 28.5 L 37.929688 4.101562 L 61.890625 28.5 Z M 61.890625 24.398438 L 54.164062 16.5 L 54.164062 2.898438 L 61.890625 2.898438 Z M 61.890625 24.398438 "/>
<path style=" stroke:none;fill-rule:nonzero;fill:rgb(51.372549%,70.196078%,82.745098%);fill-opacity:1;" d="M 30.507812 27.101562 C 30.507812 31.398438 33.925781 34.800781 38.035156 34.800781 C 42.207031 34.816406 45.609375 31.378906 45.664062 27.101562 C 45.664062 22.800781 42.242188 19.398438 38.035156 19.398438 C 33.886719 19.394531 30.515625 22.839844 30.507812 27.101562 Z M 38.132812 22.101562 C 40.792969 22.089844 42.96875 24.269531 43.023438 27 C 43.023438 29.699219 40.878906 31.898438 38.132812 31.898438 C 35.472656 31.910156 33.296875 29.730469 33.242188 27 C 33.242188 24.300781 35.386719 22.101562 38.132812 22.101562 Z M 20.921875 41.199219 L 17.992188 41.199219 L 17.992188 45.101562 L 20.921875 45.101562 Z M 26.6875 41.199219 L 23.765625 41.199219 L 23.765625 45.101562 L 26.6875 45.101562 Z M 20.921875 47.199219 L 17.992188 47.199219 L 17.992188 51.101562 L 20.921875 51.101562 Z M 26.6875 47.199219 L 23.765625 47.199219 L 23.765625 51.101562 L 26.6875 51.101562 Z M 52.109375 41.199219 L 49.1875 41.199219 L 49.1875 45.101562 L 52.109375 45.101562 Z M 57.886719 41.199219 L 54.953125 41.199219 L 54.953125 45.101562 L 57.886719 45.101562 Z M 52.109375 47.199219 L 49.1875 47.199219 L 49.1875 51.101562 L 52.109375 51.101562 Z M 57.886719 47.199219 L 54.953125 47.199219 L 54.953125 51.101562 L 57.886719 51.101562 Z M 57.886719 47.199219 "/>
</g>
</svg>
