<?xml version="1.0" encoding="UTF-8"?>
<svg xmlns="http://www.w3.org/2000/svg" xmlns:xlink="http://www.w3.org/1999/xlink" width="75px" height="72px" viewBox="0 0 75 72" version="1.1">
<g id="surface1">
<path style=" stroke:none;fill-rule:nonzero;fill:rgb(51.372549%,70.196078%,82.745098%);fill-opacity:1;" d="M 70.636719 47.699219 L 5.527344 47.699219 C 3.257812 47.699219 1.46875 49.601562 1.46875 52 L 1.46875 55.5 C 1.46875 57.898438 3.34375 59.800781 5.527344 59.800781 L 6.414062 59.800781 L 6.414062 60.898438 C 6.414062 66.398438 10.667969 71 15.917969 71 L 60.03125 71 C 65.28125 71 69.53125 66.5 69.53125 60.898438 L 69.53125 59.800781 L 70.421875 59.800781 C 72.699219 59.800781 74.488281 57.898438 74.488281 55.5 L 74.488281 52 C 74.570312 50.902344 74.199219 49.820312 73.472656 49.007812 C 72.742188 48.195312 71.714844 47.722656 70.628906 47.699219 Z M 66.78125 60.898438 C 66.78125 64.800781 63.808594 67.898438 60.148438 67.898438 L 15.925781 67.898438 C 12.265625 67.898438 9.296875 64.699219 9.296875 60.898438 L 9.296875 59.800781 L 66.78125 59.800781 Z M 71.8125 55.5 C 71.8125 56.199219 71.21875 56.800781 70.628906 56.800781 L 5.449219 56.800781 C 4.757812 56.800781 4.261719 56.199219 4.261719 55.5 L 4.261719 52 C 4.261719 51.300781 4.855469 50.699219 5.449219 50.699219 L 70.550781 50.699219 C 71.238281 50.699219 71.734375 51.300781 71.734375 52 C 71.832031 52 71.832031 55.5 71.832031 55.5 Z M 16.914062 39.398438 L 22.253906 43.5 L 27.503906 39.398438 L 32.734375 43.5 L 37.984375 39.398438 L 43.332031 43.5 L 48.574219 39.398438 L 53.8125 43.5 L 59.160156 39.398438 L 64.402344 43.5 L 70.539062 38.800781 L 68.863281 36.300781 L 64.402344 39.699219 L 59.160156 35.601562 L 53.8125 39.699219 L 48.574219 35.601562 L 43.332031 39.699219 L 37.984375 35.601562 L 32.742188 39.699219 L 27.503906 35.601562 L 22.253906 39.699219 L 16.914062 35.601562 L 11.675781 39.699219 L 7.214844 36.300781 L 5.535156 38.800781 L 11.675781 43.5 L 16.90625 39.398438 Z M 9.394531 32.5 L 69.542969 32.5 C 69.542969 31.898438 69.640625 31.300781 69.640625 30.601562 L 69.640625 29.398438 C 68.949219 13.699219 55.105469 1 38.09375 1 C 20.96875 1 7.113281 13.699219 6.425781 29.5 L 6.425781 30.699219 C 6.425781 31.300781 6.425781 31.898438 6.523438 32.5 Z M 38.082031 4 C 53.515625 4 66.175781 15.300781 66.78125 29.5 L 9.394531 29.5 C 9.988281 15.398438 22.648438 4 38.082031 4 Z M 38.082031 4 "/>
<path style=" stroke:none;fill-rule:nonzero;fill:rgb(51.372549%,70.196078%,82.745098%);fill-opacity:1;" d="M 38.09375 18.300781 C 39.128906 18.300781 39.96875 17.398438 39.96875 16.300781 C 39.96875 15.199219 39.128906 14.300781 38.09375 14.300781 C 37.046875 14.300781 36.207031 15.199219 36.207031 16.300781 C 36.207031 17.398438 37.046875 18.300781 38.082031 18.300781 Z M 30.363281 13.199219 C 31.410156 13.199219 32.238281 12.300781 32.238281 11.199219 C 32.238281 10.101562 31.410156 9.199219 30.363281 9.199219 C 29.328125 9.199219 28.488281 10.101562 28.488281 11.199219 C 28.488281 12.300781 29.328125 13.199219 30.363281 13.199219 Z M 45.699219 13.199219 C 46.738281 13.199219 47.574219 12.300781 47.574219 11.199219 C 47.574219 10.101562 46.738281 9.199219 45.699219 9.199219 C 44.664062 9.199219 43.824219 10.101562 43.824219 11.199219 C 43.824219 12.300781 44.664062 13.199219 45.699219 13.199219 Z M 45.699219 13.199219 "/>
</g>
</svg>
